<svg data-name="Capa 1" xmlns="http://www.w3.org/2000/svg" viewBox="0 0 486 486"><path d="M148.6 344.75h236.87v67.68H148.6zm308-292.67l-27 111.06a178 178 0 0 1 16.39 74.38l.36 205a43.63 43.63 0 0 1-43.56 43.71l-271.15.47h-.08A43.71 43.71 0 0 1 88 443.11l-.35-205a178.62 178.62 0 0 1 16.56-75.74L77.43 52.08a13 13 0 0 1 6.45-14.51l44.79-24.27a13 13 0 0 1 18.85 8.38l16.79 69.18a178.46 178.46 0 0 1 25.13-14.69V67A67.75 67.75 0 0 1 257.12-.67h19.83A67.75 67.75 0 0 1 344.62 67v9.47a180.14 180.14 0 0 1 25 14.73l16.87-69.53a13 13 0 0 1 18.85-8.38l44.79 24.26a13 13 0 0 1 6.5 14.53zm-241.12 14a179.31 179.31 0 0 1 51-7.48h.32a178 178 0 0 1 51.7 7.66 41.68 41.68 0 0 0-41.61-40.92h-19.77a41.67 41.67 0 0 0-41.6 40.76zm196 265.64a13 13 0 0 0-13-13h-262.9a13 13 0 0 0-13 13v93.71a13 13 0 0 0 13 13h262.9a13 13 0 0 0 13-13zm0-87.63c0-79.66-64.81-144.47-144.47-144.47s-144.45 64.83-144.45 144.49a13 13 0 1 0 26 0 118.44 118.44 0 0 1 236.87 0 13 13 0 0 0 26 0z"/></svg>