<svg data-name="Capa 1" xmlns="http://www.w3.org/2000/svg" viewBox="0 0 486 486"><path d="M149.68 222.12a11.18 11.18 0 0 0-10.49-7.18H20.61a9.15 9.15 0 0 0-7.06 15.5L217.2 459.12a9.26 9.26 0 0 0 7.07 3.34l4.6-.05 2.59-3.7a9 9 0 0 0 .94-8.61zm157.88-3.31a9.73 9.73 0 0 0-8.07-3.87H182.58a9.64 9.64 0 0 0-9.49 12.7L232.23 415a9.11 9.11 0 0 0 17.6 0L309 227.65a9.72 9.72 0 0 0-1.44-8.84zM181.68 195.5c1.75 2.94 4.9 4.33 8.44 4.33h108.57c3.54 0 6.69-1.4 8.44-4.33a9.36 9.36 0 0 0 .1-9.48L252.86 85.88a9.51 9.51 0 0 0-16.91.07L181.59 186a9.38 9.38 0 0 0 .09 9.5zM115 199.84c4 0 7.42-1.84 8.88-5.36a9.09 9.09 0 0 0-2.24-10.15L65.19 128a10 10 0 0 0-15.67 1.94l-34.17 56a9 9 0 0 0-.28 9.46c1.71 3 4.9 4.51 8.53 4.51H115zm204.8-24.97a9.9 9.9 0 0 0 15.82 2.29L411 101.83a11 11 0 0 0 1.58-13.36l-24.96-40.76a12.12 12.12 0 0 0-10-5.57H264.06a9.52 9.52 0 0 0-8.54 14.25zm-169.73 8.03a9.9 9.9 0 0 0 15.83-2.29l67.39-124.26a9.51 9.51 0 0 0-8.54-14.21H104.48a12.1 12.1 0 0 0-10 5.58L68.71 89.81a11 11 0 0 0 1.6 13.34zm311.38 32.04H342.87a11.18 11.18 0 0 0-10.49 7.18l-82.74 228a9.89 9.89 0 0 0 .95 9l2.67 4.06h4.16v-.36a10.11 10.11 0 0 0 7.25-3.54l203.75-228.83a9.14 9.14 0 0 0-7-15.5zm4.76-29.08l-35-57.26a10 10 0 0 0-15.67-1.86l-57.72 57.76c-2.85 2.84-3.71 6.44-2.25 10s4.87 5.37 8.89 5.37H458c3.63 0 6.82-1.47 8.53-4.51a9 9 0 0 0-.32-9.5z"/></svg>